<svg width="32" height="32" viewBox="0 0 32 32" xmlns="http://www.w3.org/2000/svg">
  <defs>
    <linearGradient id="bgGradient" x1="0%" y1="0%" x2="100%" y2="100%">
      <stop offset="0%" style="stop-color:#1a365d;stop-opacity:1" />
      <stop offset="100%" style="stop-color:#2d3748;stop-opacity:1" />
    </linearGradient>
    <linearGradient id="accentGradient" x1="0%" y1="0%" x2="100%" y2="100%">
      <stop offset="0%" style="stop-color:#f56565;stop-opacity:1" />
      <stop offset="100%" style="stop-color:#e53e3e;stop-opacity:1" />
    </linearGradient>
  </defs>
  
  <!-- Background circle -->
  <circle cx="16" cy="16" r="15" fill="url(#bgGradient)" stroke="#4a5568" stroke-width="1"/>
  
  <!-- Simplified helmet -->
  <path d="M 8 12 Q 8 10 10 9 Q 12 8 14 9 Q 16 10 18 9 Q 20 8 22 9 Q 24 10 24 12 L 24 18 Q 24 20 22 21 Q 20 22 18 21 Q 16 20 14 21 Q 12 22 10 21 Q 8 20 8 18 Z" 
        fill="url(#accentGradient)"/>
  
  <!-- Dollar sign -->
  <circle cx="16" cy="20" r="4" fill="url(#accentGradient)" opacity="0.9"/>
  <text x="16" y="22" font-family="Arial, sans-serif" font-size="6" font-weight="bold" text-anchor="middle" fill="white">$</text>
</svg> 